<?xml version="1.0" encoding="UTF-8" standalone="no"?>
<!DOCTYPE svg PUBLIC "-//W3C//DTD SVG 1.1//EN"
 "http://www.w3.org/Graphics/SVG/1.1/DTD/svg11.dtd">
<!-- Generated by graphviz version 9.0.0 (20230911.1827)
 -->
<!-- Pages: 1 -->
<svg width="891pt" height="1014pt"
 viewBox="0.00 0.00 891.25 1014.12" xmlns="http://www.w3.org/2000/svg" xmlns:xlink="http://www.w3.org/1999/xlink">
<g id="graph0" class="graph" transform="scale(1 1) rotate(0) translate(4 1010.12)">
<polygon fill="white" stroke="none" points="-4,4 -4,-1010.12 887.25,-1010.12 887.25,4 -4,4"/>
<!-- User -->
<g id="node1" class="node">
<title>User</title>
<polygon fill="none" stroke="black" points="8,-652.62 8,-682.12 147.75,-682.12 147.75,-652.62 8,-652.62"/>
<text text-anchor="start" x="57.25" y="-662.92" font-family="Helvetica,sans-Serif" font-weight="bold" font-size="16.00">User</text>
<polygon fill="none" stroke="black" points="8,-625.38 8,-652.62 147.75,-652.62 147.75,-625.38 8,-625.38"/>
<text text-anchor="start" x="13" y="-635.33" font-family="Helvetica,sans-Serif" text-decoration="underline" font-size="14.00">id</text>
<polygon fill="none" stroke="black" points="8,-598.12 8,-625.38 147.75,-625.38 147.75,-598.12 8,-598.12"/>
<text text-anchor="start" x="13" y="-607.08" font-family="Helvetica,sans-Serif" font-size="14.00">email</text>
<polygon fill="none" stroke="black" points="8,-570.88 8,-598.12 147.75,-598.12 147.75,-570.88 8,-570.88"/>
<text text-anchor="start" x="13" y="-579.83" font-family="Helvetica,sans-Serif" font-size="14.00">password</text>
<polygon fill="none" stroke="black" points="8,-543.62 8,-570.88 147.75,-570.88 147.75,-543.62 8,-543.62"/>
<text text-anchor="start" x="13" y="-552.58" font-family="Helvetica,sans-Serif" font-size="14.00">displayName</text>
<polygon fill="none" stroke="black" points="8,-516.38 8,-543.62 147.75,-543.62 147.75,-516.38 8,-516.38"/>
<text text-anchor="start" x="13" y="-525.33" font-family="Helvetica,sans-Serif" font-size="14.00">join_date</text>
<polygon fill="none" stroke="black" points="8,-489.12 8,-516.38 147.75,-516.38 147.75,-489.12 8,-489.12"/>
<text text-anchor="start" x="13" y="-498.07" font-family="Helvetica,sans-Serif" font-size="14.00">streak_started</text>
<polygon fill="none" stroke="black" points="8,-461.88 8,-489.12 147.75,-489.12 147.75,-461.88 8,-461.88"/>
<text text-anchor="start" x="13" y="-470.82" font-family="Helvetica,sans-Serif" font-size="14.00">streak_count</text>
<polygon fill="none" stroke="black" points="8,-434.62 8,-461.88 147.75,-461.88 147.75,-434.62 8,-434.62"/>
<text text-anchor="start" x="13" y="-443.57" font-family="Helvetica,sans-Serif" font-size="14.00">streak_last_update</text>
<polygon fill="none" stroke="black" points="8,-407.38 8,-434.62 147.75,-434.62 147.75,-407.38 8,-407.38"/>
<text text-anchor="start" x="13" y="-416.32" font-family="Helvetica,sans-Serif" font-size="14.00">last_login</text>
<polygon fill="none" stroke="black" points="8,-380.12 8,-407.38 147.75,-407.38 147.75,-380.12 8,-380.12"/>
<text text-anchor="start" x="13" y="-389.07" font-family="Helvetica,sans-Serif" font-size="14.00">hearts</text>
<polygon fill="none" stroke="black" points="8,-352.88 8,-380.12 147.75,-380.12 147.75,-352.88 8,-352.88"/>
<text text-anchor="start" x="13" y="-361.82" font-family="Helvetica,sans-Serif" font-size="14.00">role</text>
</g>
<!-- Set -->
<g id="node2" class="node">
<title>Set</title>
<polygon fill="none" stroke="black" points="236.75,-828.88 236.75,-858.38 432,-858.38 432,-828.88 236.75,-828.88"/>
<text text-anchor="start" x="319.75" y="-839.17" font-family="Helvetica,sans-Serif" font-weight="bold" font-size="16.00">Set</text>
<polygon fill="none" stroke="black" points="236.75,-801.62 236.75,-828.88 432,-828.88 432,-801.62 236.75,-801.62"/>
<text text-anchor="start" x="241.75" y="-811.58" font-family="Helvetica,sans-Serif" text-decoration="underline" font-size="14.00">id</text>
<polygon fill="none" stroke="black" points="236.75,-774.38 236.75,-801.62 432,-801.62 432,-774.38 236.75,-774.38"/>
<text text-anchor="start" x="241.75" y="-783.33" font-family="Helvetica,sans-Serif" font-size="14.00">title</text>
<polygon fill="none" stroke="black" points="236.75,-747.12 236.75,-774.38 432,-774.38 432,-747.12 236.75,-747.12"/>
<text text-anchor="start" x="241.75" y="-756.08" font-family="Helvetica,sans-Serif" font-size="14.00">subject</text>
<polygon fill="none" stroke="black" points="236.75,-719.88 236.75,-747.12 432,-747.12 432,-719.88 236.75,-719.88"/>
<text text-anchor="start" x="241.75" y="-728.83" font-family="Helvetica,sans-Serif" font-size="14.00">folder</text>
<polygon fill="none" stroke="black" points="236.75,-692.62 236.75,-719.88 432,-719.88 432,-692.62 236.75,-692.62"/>
<text text-anchor="start" x="241.75" y="-701.58" font-family="Helvetica,sans-Serif" font-size="14.00">global_term_language</text>
<polygon fill="none" stroke="black" points="236.75,-665.38 236.75,-692.62 432,-692.62 432,-665.38 236.75,-665.38"/>
<text text-anchor="start" x="241.75" y="-674.33" font-family="Helvetica,sans-Serif" font-size="14.00">global_definition_language</text>
<polygon fill="none" stroke="black" points="236.75,-638.12 236.75,-665.38 432,-665.38 432,-638.12 236.75,-638.12"/>
<text text-anchor="start" x="241.75" y="-647.08" font-family="Helvetica,sans-Serif" font-size="14.00">created_at</text>
<polygon fill="none" stroke="black" points="236.75,-610.88 236.75,-638.12 432,-638.12 432,-610.88 236.75,-610.88"/>
<text text-anchor="start" x="241.75" y="-619.83" font-family="Helvetica,sans-Serif" font-size="14.00">last_studied</text>
<polygon fill="none" stroke="black" points="236.75,-583.62 236.75,-610.88 432,-610.88 432,-583.62 236.75,-583.62"/>
<text text-anchor="start" x="241.75" y="-592.58" font-family="Helvetica,sans-Serif" font-size="14.00">last_updated</text>
<polygon fill="none" stroke="black" points="236.75,-556.38 236.75,-583.62 432,-583.62 432,-556.38 236.75,-556.38"/>
<text text-anchor="start" x="241.75" y="-565.33" font-family="Helvetica,sans-Serif" font-size="14.00">public</text>
<polygon fill="none" stroke="black" points="236.75,-529.12 236.75,-556.38 432,-556.38 432,-529.12 236.75,-529.12"/>
<text text-anchor="start" x="241.75" y="-538.08" font-family="Helvetica,sans-Serif" font-size="14.00">hearts</text>
<polygon fill="none" stroke="black" points="236.75,-501.88 236.75,-529.12 432,-529.12 432,-501.88 236.75,-501.88"/>
<text text-anchor="start" x="241.75" y="-511.82" font-family="Helvetica,sans-Serif" font-style="italic" font-size="14.00">user_id</text>
<polygon fill="none" stroke="black" points="236.75,-474.62 236.75,-501.88 432,-501.88 432,-474.62 236.75,-474.62"/>
<text text-anchor="start" x="241.75" y="-484.57" font-family="Helvetica,sans-Serif" font-style="italic" font-size="14.00">folder_id</text>
</g>
<!-- User&#45;&#45;Set -->
<g id="edge1" class="edge">
<title>User&#45;&#45;Set</title>
<path fill="none" stroke="#7f7f7f" stroke-dasharray="5,2" d="M155.58,-562.41C178.7,-575.95 204.49,-591.04 229.09,-605.44"/>
<text text-anchor="start" x="199.09" y="-592.14" font-family="Times,serif" font-size="14.00">0..N</text>
<text text-anchor="start" x="155.58" y="-549.11" font-family="Times,serif" font-size="14.00">1</text>
</g>
<!-- SetLike -->
<g id="node3" class="node">
<title>SetLike</title>
<polygon fill="none" stroke="black" points="545.75,-972.62 545.75,-1002.12 627.75,-1002.12 627.75,-972.62 545.75,-972.62"/>
<text text-anchor="start" x="553.75" y="-982.92" font-family="Helvetica,sans-Serif" font-weight="bold" font-size="16.00">SetLike</text>
<polygon fill="none" stroke="black" points="545.75,-945.38 545.75,-972.62 627.75,-972.62 627.75,-945.38 545.75,-945.38"/>
<text text-anchor="start" x="550.75" y="-955.33" font-family="Helvetica,sans-Serif" font-style="italic" text-decoration="underline" font-size="14.00">user_id</text>
<polygon fill="none" stroke="black" points="545.75,-918.12 545.75,-945.38 627.75,-945.38 627.75,-918.12 545.75,-918.12"/>
<text text-anchor="start" x="550.75" y="-928.08" font-family="Helvetica,sans-Serif" font-style="italic" text-decoration="underline" font-size="14.00">set_id</text>
<polygon fill="none" stroke="black" points="545.75,-890.88 545.75,-918.12 627.75,-918.12 627.75,-890.88 545.75,-890.88"/>
<text text-anchor="start" x="550.75" y="-899.83" font-family="Helvetica,sans-Serif" font-size="14.00">created_at</text>
</g>
<!-- User&#45;&#45;SetLike -->
<g id="edge2" class="edge">
<title>User&#45;&#45;SetLike</title>
<path fill="none" stroke="#7f7f7f" stroke-dasharray="5,2" d="M114.21,-686.06C136.43,-752.92 172.07,-824.84 228.75,-871.5 318.6,-945.46 463.39,-951.89 537.96,-949.62"/>
<text text-anchor="start" x="507.96" y="-936.32" font-family="Times,serif" font-size="14.00">0..N</text>
<text text-anchor="start" x="105.21" y="-690.01" font-family="Times,serif" font-size="14.00">1</text>
</g>
<!-- ClassroomUser -->
<g id="node7" class="node">
<title>ClassroomUser</title>
<polygon fill="none" stroke="black" points="261.5,-269.62 261.5,-299.12 407.25,-299.12 407.25,-269.62 261.5,-269.62"/>
<text text-anchor="start" x="266.5" y="-279.93" font-family="Helvetica,sans-Serif" font-weight="bold" font-size="16.00">ClassroomUser</text>
<polygon fill="none" stroke="black" points="261.5,-242.38 261.5,-269.62 407.25,-269.62 407.25,-242.38 261.5,-242.38"/>
<text text-anchor="start" x="266.5" y="-252.32" font-family="Helvetica,sans-Serif" font-style="italic" text-decoration="underline" font-size="14.00">user_id</text>
<polygon fill="none" stroke="black" points="261.5,-215.12 261.5,-242.38 407.25,-242.38 407.25,-215.12 261.5,-215.12"/>
<text text-anchor="start" x="266.5" y="-225.07" font-family="Helvetica,sans-Serif" font-style="italic" text-decoration="underline" font-size="14.00">classroom_id</text>
<polygon fill="none" stroke="black" points="261.5,-187.88 261.5,-215.12 407.25,-215.12 407.25,-187.88 261.5,-187.88"/>
<text text-anchor="start" x="266.5" y="-196.82" font-family="Helvetica,sans-Serif" font-size="14.00">role</text>
</g>
<!-- User&#45;&#45;ClassroomUser -->
<g id="edge6" class="edge">
<title>User&#45;&#45;ClassroomUser</title>
<path fill="none" stroke="#7f7f7f" stroke-dasharray="5,2" d="M155.61,-431.08C167.64,-417.76 179.98,-404.21 191.75,-391.5 219.05,-362.01 249.85,-329.72 275.73,-302.85"/>
<text text-anchor="start" x="245.73" y="-306.8" font-family="Times,serif" font-size="14.00">0..N</text>
<text text-anchor="start" x="155.61" y="-417.78" font-family="Times,serif" font-size="14.00">1</text>
</g>
<!-- StudySession -->
<g id="node9" class="node">
<title>StudySession</title>
<polygon fill="none" stroke="black" points="521,-414.12 521,-443.62 652.5,-443.62 652.5,-414.12 521,-414.12"/>
<text text-anchor="start" x="526.38" y="-424.43" font-family="Helvetica,sans-Serif" font-weight="bold" font-size="16.00">StudySession</text>
<polygon fill="none" stroke="black" points="521,-386.88 521,-414.12 652.5,-414.12 652.5,-386.88 521,-386.88"/>
<text text-anchor="start" x="526" y="-396.82" font-family="Helvetica,sans-Serif" text-decoration="underline" font-size="14.00">id</text>
<polygon fill="none" stroke="black" points="521,-359.62 521,-386.88 652.5,-386.88 652.5,-359.62 521,-359.62"/>
<text text-anchor="start" x="526" y="-368.57" font-family="Helvetica,sans-Serif" font-size="14.00">started_at</text>
<polygon fill="none" stroke="black" points="521,-332.38 521,-359.62 652.5,-359.62 652.5,-332.38 521,-332.38"/>
<text text-anchor="start" x="526" y="-341.32" font-family="Helvetica,sans-Serif" font-size="14.00">duration_min</text>
<polygon fill="none" stroke="black" points="521,-305.12 521,-332.38 652.5,-332.38 652.5,-305.12 521,-305.12"/>
<text text-anchor="start" x="526" y="-314.07" font-family="Helvetica,sans-Serif" font-size="14.00">second_last_login</text>
<polygon fill="none" stroke="black" points="521,-277.88 521,-305.12 652.5,-305.12 652.5,-277.88 521,-277.88"/>
<text text-anchor="start" x="526" y="-286.82" font-family="Helvetica,sans-Serif" font-size="14.00">last_login</text>
<polygon fill="none" stroke="black" points="521,-250.62 521,-277.88 652.5,-277.88 652.5,-250.62 521,-250.62"/>
<text text-anchor="start" x="526" y="-260.57" font-family="Helvetica,sans-Serif" font-style="italic" font-size="14.00">user_id</text>
<polygon fill="none" stroke="black" points="521,-223.38 521,-250.62 652.5,-250.62 652.5,-223.38 521,-223.38"/>
<text text-anchor="start" x="526" y="-233.32" font-family="Helvetica,sans-Serif" font-style="italic" font-size="14.00">set_id</text>
</g>
<!-- User&#45;&#45;StudySession -->
<g id="edge10" class="edge">
<title>User&#45;&#45;StudySession</title>
<path fill="none" stroke="#7f7f7f" stroke-dasharray="5,2" d="M155.43,-488.67C178.93,-479.88 204.88,-470.24 228.75,-461.5 327.06,-425.51 440.97,-384.85 513.17,-359.2"/>
<text text-anchor="start" x="483.17" y="-345.9" font-family="Times,serif" font-size="14.00">0..N</text>
<text text-anchor="start" x="155.43" y="-475.37" font-family="Times,serif" font-size="14.00">1</text>
</g>
<!-- Set&#45;&#45;SetLike -->
<g id="edge3" class="edge">
<title>Set&#45;&#45;SetLike</title>
<path fill="none" stroke="#7f7f7f" stroke-dasharray="5,2" d="M439.77,-796.2C463.25,-823.91 488.48,-852.62 513,-878.5 520.85,-886.78 529.48,-895.32 537.98,-903.42"/>
<text text-anchor="start" x="507.98" y="-890.12" font-family="Times,serif" font-size="14.00">0..N</text>
<text text-anchor="start" x="439.77" y="-782.9" font-family="Times,serif" font-size="14.00">1</text>
</g>
<!-- Card -->
<g id="node4" class="node">
<title>Card</title>
<polygon fill="none" stroke="black" points="528.12,-660.12 528.12,-689.62 645.38,-689.62 645.38,-660.12 528.12,-660.12"/>
<text text-anchor="start" x="565.75" y="-670.42" font-family="Helvetica,sans-Serif" font-weight="bold" font-size="16.00">Card</text>
<polygon fill="none" stroke="black" points="528.12,-632.88 528.12,-660.12 645.38,-660.12 645.38,-632.88 528.12,-632.88"/>
<text text-anchor="start" x="533.12" y="-642.83" font-family="Helvetica,sans-Serif" text-decoration="underline" font-size="14.00">id</text>
<polygon fill="none" stroke="black" points="528.12,-605.62 528.12,-632.88 645.38,-632.88 645.38,-605.62 528.12,-605.62"/>
<text text-anchor="start" x="533.12" y="-614.58" font-family="Helvetica,sans-Serif" font-size="14.00">term</text>
<polygon fill="none" stroke="black" points="528.12,-578.38 528.12,-605.62 645.38,-605.62 645.38,-578.38 528.12,-578.38"/>
<text text-anchor="start" x="533.12" y="-587.33" font-family="Helvetica,sans-Serif" font-size="14.00">definition</text>
<polygon fill="none" stroke="black" points="528.12,-551.12 528.12,-578.38 645.38,-578.38 645.38,-551.12 528.12,-551.12"/>
<text text-anchor="start" x="533.12" y="-560.08" font-family="Helvetica,sans-Serif" font-size="14.00">created_at</text>
<polygon fill="none" stroke="black" points="528.12,-523.88 528.12,-551.12 645.38,-551.12 645.38,-523.88 528.12,-523.88"/>
<text text-anchor="start" x="533.12" y="-532.83" font-family="Helvetica,sans-Serif" font-size="14.00">updated_at</text>
<polygon fill="none" stroke="black" points="528.12,-496.62 528.12,-523.88 645.38,-523.88 645.38,-496.62 528.12,-496.62"/>
<text text-anchor="start" x="533.12" y="-505.57" font-family="Helvetica,sans-Serif" font-size="14.00">card_viewcount</text>
<polygon fill="none" stroke="black" points="528.12,-469.38 528.12,-496.62 645.38,-496.62 645.38,-469.38 528.12,-469.38"/>
<text text-anchor="start" x="533.12" y="-479.32" font-family="Helvetica,sans-Serif" font-style="italic" font-size="14.00">set_id</text>
</g>
<!-- Set&#45;&#45;Card -->
<g id="edge5" class="edge">
<title>Set&#45;&#45;Card</title>
<path fill="none" stroke="#7f7f7f" stroke-dasharray="5,2" d="M439.74,-630.23C466.98,-620.77 495.57,-610.83 520.16,-602.29"/>
<text text-anchor="start" x="490.16" y="-588.99" font-family="Times,serif" font-size="14.00">0..N</text>
<text text-anchor="start" x="439.74" y="-616.93" font-family="Times,serif" font-size="14.00">1</text>
</g>
<!-- Folder -->
<g id="node5" class="node">
<title>Folder</title>
<polygon fill="none" stroke="black" points="553.25,-835.62 553.25,-865.12 620.25,-865.12 620.25,-835.62 553.25,-835.62"/>
<text text-anchor="start" x="558.25" y="-845.92" font-family="Helvetica,sans-Serif" font-weight="bold" font-size="16.00">Folder</text>
<polygon fill="none" stroke="black" points="553.25,-808.38 553.25,-835.62 620.25,-835.62 620.25,-808.38 553.25,-808.38"/>
<text text-anchor="start" x="558.25" y="-818.33" font-family="Helvetica,sans-Serif" font-style="italic" font-size="14.00">id</text>
<polygon fill="none" stroke="black" points="553.25,-781.12 553.25,-808.38 620.25,-808.38 620.25,-781.12 553.25,-781.12"/>
<text text-anchor="start" x="558.25" y="-790.08" font-family="Helvetica,sans-Serif" font-size="14.00">name</text>
<polygon fill="none" stroke="black" points="553.25,-753.88 553.25,-781.12 620.25,-781.12 620.25,-753.88 553.25,-753.88"/>
<text text-anchor="start" x="558.25" y="-762.83" font-family="Helvetica,sans-Serif" font-size="14.00">owner</text>
</g>
<!-- Set&#45;&#45;Folder -->
<g id="edge4" class="edge">
<title>Set&#45;&#45;Folder</title>
<path fill="none" stroke="#7f7f7f" stroke-dasharray="5,2" d="M439.74,-726.11C477.05,-747.41 516.88,-770.17 545.51,-786.52"/>
<text text-anchor="start" x="515.51" y="-790.47" font-family="Times,serif" font-size="14.00">0..N</text>
<text text-anchor="start" x="439.74" y="-712.81" font-family="Times,serif" font-size="14.00">1</text>
</g>
<!-- ClassroomSet -->
<g id="node8" class="node">
<title>ClassroomSet</title>
<polygon fill="none" stroke="black" points="741.5,-424 741.5,-453.5 875.25,-453.5 875.25,-424 741.5,-424"/>
<text text-anchor="start" x="746.5" y="-434.3" font-family="Helvetica,sans-Serif" font-weight="bold" font-size="16.00">ClassroomSet</text>
<polygon fill="none" stroke="black" points="741.5,-396.75 741.5,-424 875.25,-424 875.25,-396.75 741.5,-396.75"/>
<text text-anchor="start" x="746.5" y="-406.7" font-family="Helvetica,sans-Serif" font-style="italic" text-decoration="underline" font-size="14.00">set_id</text>
<polygon fill="none" stroke="black" points="741.5,-369.5 741.5,-396.75 875.25,-396.75 875.25,-369.5 741.5,-369.5"/>
<text text-anchor="start" x="746.5" y="-379.45" font-family="Helvetica,sans-Serif" font-style="italic" text-decoration="underline" font-size="14.00">classroom_id</text>
</g>
<!-- Set&#45;&#45;ClassroomSet -->
<g id="edge8" class="edge">
<title>Set&#45;&#45;ClassroomSet</title>
<path fill="none" stroke="#7f7f7f" stroke-dasharray="5,2" d="M439.73,-709.61C507.4,-730.34 594.84,-742.91 660.5,-702.5 747.97,-648.67 785.24,-524.89 799.52,-457.41"/>
<text text-anchor="start" x="769.52" y="-461.36" font-family="Times,serif" font-size="14.00">0..N</text>
<text text-anchor="start" x="439.73" y="-696.31" font-family="Times,serif" font-size="14.00">1</text>
</g>
<!-- Set&#45;&#45;StudySession -->
<g id="edge11" class="edge">
<title>Set&#45;&#45;StudySession</title>
<path fill="none" stroke="#7f7f7f" stroke-dasharray="5,2" d="M439.74,-527.69C464.43,-494.85 490.23,-460.54 513.16,-430.05"/>
<text text-anchor="start" x="483.16" y="-416.75" font-family="Times,serif" font-size="14.00">0..N</text>
<text text-anchor="start" x="439.74" y="-514.39" font-family="Times,serif" font-size="14.00">1</text>
</g>
<!-- Classroom -->
<g id="node6" class="node">
<title>Classroom</title>
<polygon fill="none" stroke="black" points="534.5,-167.5 534.5,-197 639,-197 639,-167.5 534.5,-167.5"/>
<text text-anchor="start" x="539.5" y="-177.8" font-family="Helvetica,sans-Serif" font-weight="bold" font-size="16.00">Classroom</text>
<polygon fill="none" stroke="black" points="534.5,-140.25 534.5,-167.5 639,-167.5 639,-140.25 534.5,-140.25"/>
<text text-anchor="start" x="539.5" y="-150.2" font-family="Helvetica,sans-Serif" text-decoration="underline" font-size="14.00">id</text>
<polygon fill="none" stroke="black" points="534.5,-113 534.5,-140.25 639,-140.25 639,-113 534.5,-113"/>
<text text-anchor="start" x="539.5" y="-121.95" font-family="Helvetica,sans-Serif" font-size="14.00">name</text>
<polygon fill="none" stroke="black" points="534.5,-85.75 534.5,-113 639,-113 639,-85.75 534.5,-85.75"/>
<text text-anchor="start" x="539.5" y="-94.7" font-family="Helvetica,sans-Serif" font-size="14.00">owner</text>
<polygon fill="none" stroke="black" points="534.5,-58.5 534.5,-85.75 639,-85.75 639,-58.5 534.5,-58.5"/>
<text text-anchor="start" x="539.5" y="-67.45" font-family="Helvetica,sans-Serif" font-size="14.00">type</text>
<polygon fill="none" stroke="black" points="534.5,-31.25 534.5,-58.5 639,-58.5 639,-31.25 534.5,-31.25"/>
<text text-anchor="start" x="539.5" y="-40.2" font-family="Helvetica,sans-Serif" font-size="14.00">created_at</text>
<polygon fill="none" stroke="black" points="534.5,-4 534.5,-31.25 639,-31.25 639,-4 534.5,-4"/>
<text text-anchor="start" x="539.5" y="-12.95" font-family="Helvetica,sans-Serif" font-size="14.00">verified</text>
</g>
<!-- Classroom&#45;&#45;ClassroomSet -->
<g id="edge9" class="edge">
<title>Classroom&#45;&#45;ClassroomSet</title>
<path fill="none" stroke="#7f7f7f" stroke-dasharray="5,2" d="M646.89,-184.25C688.06,-242.54 741.39,-318.06 775,-365.66"/>
<text text-anchor="start" x="745" y="-352.36" font-family="Times,serif" font-size="14.00">0..N</text>
<text text-anchor="start" x="646.89" y="-170.95" font-family="Times,serif" font-size="14.00">1</text>
</g>
<!-- ClassroomUser&#45;&#45;Classroom -->
<g id="edge7" class="edge">
<title>ClassroomUser&#45;&#45;Classroom</title>
<path fill="none" stroke="#7f7f7f" stroke-dasharray="5,2" d="M414.94,-198.06C451.17,-177.37 493.3,-153.3 526.65,-134.25"/>
<text text-anchor="start" x="517.65" y="-120.95" font-family="Times,serif" font-size="14.00">1</text>
<text text-anchor="start" x="414.94" y="-184.76" font-family="Times,serif" font-size="14.00">0..N</text>
</g>
</g>
</svg>
