<?xml version="1.0" encoding="UTF-8"?>
<svg id="Laag_1" xmlns="http://www.w3.org/2000/svg" version="1.1" viewBox="0 0 800 800">
  <!-- Generator: Adobe Illustrator 29.7.1, SVG Export Plug-In . SVG Version: 2.1.1 Build 8)  -->
  <defs>
    <style>
      .st0 {
        stroke: #2a3a42;
      }

      .st0, .st1, .st2 {
        display: none;
      }

      .st0, .st2 {
        stroke-linecap: round;
        stroke-linejoin: round;
        stroke-width: 50px;
      }

      .st0, .st3 {
        fill: #2a3a42;
      }

      .st1 {
        fill: #fff;
      }

      .st2 {
        fill: none;
        stroke: #fff;
      }
    </style>
  </defs>
  <circle class="st0" cx="400" cy="400" r="266.7"/>
  <path class="st3" d="M400,108.3c-161.4,0-292.2,130.8-292.2,292.2s130.8,292.2,292.2,292.2,292.2-130.8,292.2-292.2S561.4,108.3,400,108.3ZM518.7,351.4l-133.1,133.1c-3.7,3.7-8.3,6-13.1,7-.4,0-.8.1-1.2.2-7.7,1.1-15.7-1.3-21.6-7.2l-76.2-76.1c-5-5-7.4-11.5-7.4-18s2.5-13,7.4-18c9.9-9.9,26-9.9,35.9,0l58.2,58.2,115.2-115.2c5-5,11.5-7.4,18-7.4s13,2.5,18,7.4c9.9,9.9,9.9,26,0,35.9Z"/>
  <path class="st2" d="M300,400c22.2,22.2,44.4,44.4,66.5,66.7,44.5-44.4,89-88.9,133.5-133.3"/>
  <rect class="st1" x="408.7" y="280.1" width="50.8" height="239.1" rx="25.4" ry="25.4" transform="translate(409.7 -189.9) rotate(45)"/>
</svg>